{
  "accessors": [
    {
      "bufferView": 2,
      "componentType": 5126,
      "count": 8,
      "max": [
        0.6220290064811707,
        0.02028599940240383,
        4.451756000518799
      ],
      "min": [
        -0.04455399885773659,
        -0.26479199528694153,
        1.0229229927062988
      ],
      "type": "VEC3"
    },
    {
      "bufferView": 0,
      "componentType": 5125,
      "count": 8,
      "type": "SCALAR"
    },
    {
      "bufferView": 2,
      "byteOffset": 96,
      "componentType": 5126,
      "count": 12292,
      "max": [
        1.3824779987335205,
        0.35563701391220093,
        4.759068012237549
      ],
      "min": [
        -1.4204740524291992,
        -0.3629339933395386,
        0.0013279999839141965
      ],
      "type": "VEC3"
    },
    {
      "bufferView": 2,
      "byteOffset": 147600,
      "componentType": 5126,
      "count": 12292,
      "max": [
        0.9999996423721313,
        0.9999569654464722,
        0.9999998807907104
      ],
      "min": [
        -0.9999711513519287,
        -0.9999657869338989,
        -0.9999885559082031
      ],
      "type": "VEC3"
    },
    {
      "bufferView": 1,
      "componentType": 5126,
      "count": 12292,
      "max": [
        1.0,
        1.0
      ],
      "min": [
        0.0,
        0.0
      ],
      "type": "VEC2"
    },
    {
      "bufferView": 0,
      "byteOffset": 32,
      "componentType": 5125,
      "count": 67146,
      "type": "SCALAR"
    }
  ],
  "asset": {
    "extras": {
      "author": "hooganius (https://sketchfab.com/hooganius)",
      "license": "CC-BY-4.0 (http://creativecommons.org/licenses/by/4.0/)",
      "source": "https://sketchfab.com/3d-models/backrooms-monster-687ee5d0ea3442f284a21d52ce76e87a",
      "title": "Backrooms Monster"
    },
    "generator": "Sketchfab-13.87.0",
    "version": "2.0"
  },
  "bufferViews": [
    {
      "buffer": 0,
      "byteLength": 268616,
      "name": "floatBufferViews",
      "target": 34963
    },
    {
      "buffer": 0,
      "byteLength": 98336,
      "byteOffset": 268616,
      "byteStride": 8,
      "name": "floatBufferViews",
      "target": 34962
    },
    {
      "buffer": 0,
      "byteLength": 295104,
      "byteOffset": 366952,
      "byteStride": 12,
      "name": "floatBufferViews",
      "target": 34962
    }
  ],
  "buffers": [
    {
      "byteLength": 662056,
      "uri": "scene.bin"
    }
  ],
  "materials": [
    {
      "doubleSided": true,
      "name": "Material.001",
      "pbrMetallicRoughness": {
        "baseColorFactor": [
          0.0,
          0.0,
          0.0,
          1.0
        ],
        "metallicFactor": 0.3702868427789494,
        "roughnessFactor": 0.13257183259987076
      }
    }
  ],
  "meshes": [
    {
      "name": "Object_0",
      "primitives": [
        {
          "attributes": {
            "POSITION": 0
          },
          "indices": 1,
          "material": 0,
          "mode": 1
        }
      ]
    },
    {
      "name": "Object_1",
      "primitives": [
        {
          "attributes": {
            "NORMAL": 3,
            "POSITION": 2,
            "TEXCOORD_0": 4
          },
          "indices": 5,
          "material": 0,
          "mode": 4
        }
      ]
    }
  ],
  "nodes": [
    {
      "children": [
        1
      ],
      "matrix": [
        0.5759849548339844,
        0.0,
        0.0,
        0.0,
        0.0,
        1.2789435173887406e-16,
        -0.5759849548339844,
        0.0,
        0.0,
        0.5759849548339844,
        1.2789435173887406e-16,
        0.0,
        0.0,
        0.0,
        0.0,
        1.0
      ],
      "name": "Sketchfab_model"
    },
    {
      "children": [
        2,
        3
      ],
      "name": "untitled.obj.cleaner.materialmerger.gles"
    },
    {
      "mesh": 0,
      "name": "Object_2"
    },
    {
      "mesh": 1,
      "name": "Object_3"
    }
  ],
  "scene": 0,
  "scenes": [
    {
      "name": "Sketchfab_Scene",
      "nodes": [
        0
      ]
    }
  ]
}
